<?xml version="1.0" encoding="utf-8"?>
<!-- Generator: Adobe Illustrator 24.0.2, SVG Export Plug-In . SVG Version: 6.00 Build 0)  -->
<svg version="1.1" id="Layer_1" xmlns="http://www.w3.org/2000/svg" xmlns:xlink="http://www.w3.org/1999/xlink" x="0px" y="0px"
	 viewBox="0 0 473.1 162.4" style="enable-background:new 0 0 473.1 162.4;" xml:space="preserve">
<style type="text/css">
	.st0{fill:#FFFFFF;}
</style>
<g>
	<g>
		<g>
			<g>
				<g>
					<path class="st0" d="M92.5,142.6c-2.7-1.5-3.3-6.3-4.2-9s-2-2.5-2.8-4c-0.9-1.5-0.9-2-0.9-2l-1.4-0.7c-1.4-0.8-2.5-2.2-1.9-4.7
						c0.6-2.5,0.1-4.8,0.1-4.8s-1.8-0.8-2.3-1.7c-0.5-0.9-1.1,0-3.2-3.5s4-6.4,6.2-8.8c2.3-2.4,1-5.7,1-5.7s-1.8-0.9-2.2-1.3
						c2.1,1,2-0.3,2-0.3s-0.8-4.5-2.8-7c-2-2.6-4.8-4.9-4.6-17.3c0.3-12.3,18-27.4,18-27.4h0c0.2-1.1,0.5-1.7,0.7-1.9
						c5.6-4.2,11.3-0.3,9.8-2.6C94,30,82.7,35.3,72.1,27c-9.6-7.5-20-2.2-20-2.2S49.6,6.4,48.1,2.4c-1.4-4-4.8-2.8-7.2,3.1
						c4.3,1.1,5.9,17.4,5.9,17.4s-0.3,4.1-6,2.6C16.7,19.1-2.6,36.1,0.3,37.1C28.5,45.7,33.1,81.7,33,85.4s-2.5,6.4-2.6,7.7
						c-0.2,1.8,1.4,1.3,1.3,1.4c-0.6,0.7-1.4,0.5-1.4,0.5s0,0.8-0.3,3.5c-0.1,6.1,9.3,13.3,8.3,17.8c-0.9,4.5-4.7,3.9-7.8,4.4
						c-0.3,0.8,2.7,3.3,2.1,5.4c-0.6,2.1-3.3,2.6-3.3,2.6s2.1,1.9,2.1,4c-0.1,2.1-2.5,1.5-3.9,3.1s2.8,9.4-0.7,12.3
						c-5.7,4.7-13-1.4-8.8,3.7c16.3,19.6,25.5,6.1,38.3,6.1C69.7,157.9,81.6,170.5,92.5,142.6"/>
					<g>
						<path class="st0" d="M327.4,56l25.7-26.7c0.4-0.4,0.5-1,0.3-1.5c-0.2-0.5-0.7-0.8-1.3-0.8h-17.5c-0.4,0-0.7,0.2-1,0.4
							l-23.8,25.8V28.3c0-0.8-0.6-1.4-1.4-1.4h-14.3c-0.8,0-1.4,0.6-1.4,1.4v64.9c0,0.8,0.6,1.4,1.4,1.4h14.3c0.8,0,1.4-0.6,1.4-1.4
							V73.9l6-6.2L335,94c0.3,0.4,0.7,0.6,1.1,0.6h17.1c0.5,0,1-0.3,1.2-0.8s0.2-1-0.1-1.4L327.4,56z"/>
						<path class="st0" d="M381.9,27h-14.3c-0.8,0-1.4,0.6-1.4,1.4v64.9c0,0.8,0.6,1.4,1.4,1.4h14.3c0.8,0,1.4-0.6,1.4-1.4V28.3
							C383.2,27.6,382.6,27,381.9,27z"/>
						<path class="st0" d="M426.1,27h-25.3c-0.8,0-1.4,0.6-1.4,1.4v64.9c0,0.8,0.6,1.4,1.4,1.4h25.3c20.8,0,35.8-14.2,35.8-33.8
							v-0.2C462,41.1,446.9,27,426.1,27z M416.5,42.6h9.7c10.9,0,18.2,7.3,18.2,18.2V61c0,10.8-7.3,18-18.2,18h-9.7V42.6z"/>
					</g>
					<g>
						<g>
							<path class="st0" d="M184.3,27h-14.1c-0.8,0-1.4,0.6-1.4,1.4v35.9l-28-36.8c-0.3-0.3-0.7-0.5-1.1-0.5h-13.2
								c-0.8,0-1.4,0.6-1.4,1.4v64.9c0,0.8,0.6,1.4,1.4,1.4h14.1c0.8,0,1.4-0.6,1.4-1.4V56l29,38.1c0.3,0.3,0.7,0.5,1.1,0.5h12.1
								c0.8,0,1.4-0.6,1.4-1.4V28.3C185.7,27.6,185.1,27,184.3,27z"/>
							<path class="st0" d="M233.3,25.9c-20.1,0-35.9,15.3-35.9,34.9V61c0,19.8,15.4,34.7,35.8,34.7c20.1,0,35.9-15.3,35.9-34.9
								v-0.2C269,40.8,253.6,25.9,233.3,25.9z M215,60.6c0-10.8,7.8-18.9,18.1-18.9c10.4,0,18.3,8.2,18.3,19V61
								c0,10.8-7.8,18.9-18.1,18.9c-10.4,0-18.3-8.2-18.3-19V60.6z"/>
						</g>
						<g>
							<path class="st0" d="M167.1,110h-10.4c-0.7,0-1.3,0.6-1.3,1.3v17.4h-16.6v-17.4c0-0.7-0.6-1.3-1.3-1.3h-10.4
								c-0.7,0-1.3,0.6-1.3,1.3v47.3c0,0.7,0.6,1.3,1.3,1.3h10.4c0.7,0,1.3-0.6,1.3-1.3V141h16.6v17.7c0,0.7,0.6,1.3,1.3,1.3h10.4
								c0.7,0,1.3-0.6,1.3-1.3v-47.3C168.4,110.6,167.8,110,167.1,110z"/>
							<path class="st0" d="M225.1,110h-10.4c-0.7,0-1.3,0.6-1.3,1.3v27.1c0,6.6-3.1,10-8.9,10c-7.3,0-8.9-5.6-8.9-10.4v-26.8
								c0-0.7-0.6-1.3-1.3-1.3h-10.4c-0.7,0-1.3,0.6-1.3,1.3v27c0,14.2,7.9,22.3,21.8,22.3c14,0,22.1-8.3,22.1-22.7v-26.7
								C226.4,110.6,225.8,110,225.1,110z"/>
							<path class="st0" d="M283.9,110h-10.3c-0.7,0-1.3,0.6-1.3,1.3v25.2l-19.8-26c-0.3-0.3-0.6-0.5-1-0.5h-9.6
								c-0.7,0-1.3,0.6-1.3,1.3v47.3c0,0.7,0.6,1.3,1.3,1.3h10.3c0.7,0,1.3-0.6,1.3-1.3v-26.2l20.5,27c0.3,0.3,0.6,0.5,1,0.5h8.9
								c0.7,0,1.3-0.6,1.3-1.3v-47.3C285.2,110.6,284.6,110,283.9,110z"/>
							<path class="st0" d="M343.8,130.1h-20.5c-0.7,0-1.3,0.6-1.3,1.3v9c0,0.7,0.6,1.3,1.3,1.3h9.1v4.7c-2.3,1.5-5.2,2.2-8.5,2.2
								c-7.5,0-13-5.8-13-13.7v-0.1c0-7.4,5.5-13.4,12.3-13.4c5.1,0,8.1,1.6,11.5,4.5c0.3,0.2,0.6,0.3,1,0.3s0.7-0.2,0.9-0.5
								l6.6-7.9c0.5-0.6,0.4-1.4-0.2-1.9c-5.7-4.8-11.3-6.8-19.5-6.8c-14.6,0-26.1,11.3-26.1,25.8v0.1c0,14.9,11,25.7,26.2,25.7
								c7.9,0,14.9-2.6,21.1-7.8c0.3-0.3,0.5-0.6,0.5-1v-20.5C345.2,130.7,344.6,130.1,343.8,130.1z"/>
							<path class="st0" d="M391.4,142.3c6.1-2.9,9.5-8.2,9.5-15.3v-0.1c0-4.8-1.5-8.8-4.4-11.8c-3.4-3.4-8.5-5.2-14.7-5.2H360
								c-0.7,0-1.3,0.6-1.3,1.3v47.3c0,0.7,0.6,1.3,1.3,1.3h10.4c0.7,0,1.3-0.6,1.3-1.3v-13.8h6.1l9.8,14.5c0.3,0.4,0.7,0.6,1.1,0.6
								h12.2c0.5,0,0.9-0.3,1.2-0.7c0.2-0.4,0.2-1-0.1-1.4L391.4,142.3z M371.8,122h9c3.1,0,6.9,0.9,6.9,5.4v0.1
								c0,3.4-2.5,5.4-6.6,5.4h-9.2L371.8,122L371.8,122z"/>
							<path class="st0" d="M455.4,110.7c-0.2-0.4-0.7-0.7-1.2-0.7h-11.8c-0.5,0-0.9,0.2-1.1,0.6l-10.4,17.1l-10.2-17.1
								c-0.2-0.4-0.7-0.6-1.1-0.6h-12.2c-0.5,0-0.9,0.3-1.2,0.7c-0.2,0.4-0.2,0.9,0,1.4l18,28.3v18.3c0,0.7,0.6,1.3,1.3,1.3h10.4
								c0.7,0,1.3-0.6,1.3-1.3v-18.5l18-28.1C455.6,111.6,455.7,111.1,455.4,110.7z"/>
						</g>
					</g>
				</g>
			</g>
		</g>
	</g>
	<g>
		<path class="st0" d="M460,115.9L460,115.9c0-3.6,2.9-6.6,6.5-6.6c3.7,0,6.6,3,6.6,6.5v0c0,3.6-2.9,6.6-6.5,6.6
			C462.8,122.5,460,119.5,460,115.9z M472.3,115.9L472.3,115.9c0-3.2-2.5-5.9-5.8-5.9c-3.3,0-5.8,2.7-5.8,5.9v0
			c0,3.2,2.5,5.8,5.8,5.8C469.8,121.7,472.3,119.1,472.3,115.9z M464,112.4h3c1.5,0,2.6,0.7,2.6,2.1c0,1.1-0.6,1.8-1.5,2l1.8,2.5
			h-1.5l-1.6-2.3h-1.4v2.3H464L464,112.4L464,112.4z M466.9,115.7c0.9,0,1.4-0.5,1.4-1.1c0-0.7-0.5-1.1-1.4-1.1h-1.6v2.2H466.9z"/>
	</g>
</g>
</svg>
